 http://www.imdb.com/title/tt0074119/

Source: All.The.Presidents.Men.1976.720p.BluRay.x264-SiNNERS

Subs: Bulgarian, Danish, Dutch, English, Finnish, French, Hebrew, Indonesian, Italian, Polish, Romanian, Slovenian and Spanish.

Sample and Screens included.

General
Complete name                    : All The Presidents Men-720p MP4 AAC x264 BRRip 1976-CC.mp4
Format                           : MPEG-4
Format profile                   : Base Media
Codec ID                         : isom
File size                        : 1.98 GiB
Duration                         : 2h 18mn
Overall bit rate                 : 2 046 Kbps
Encoded date                     : UTC 2012-07-05 15:42:08

Video
ID                               : 1
Format                           : AVC
Format/Info                      : Advanced Video Codec
Format profile                   : High@L3.1
Format settings, CABAC           : Yes
Format settings, ReFrames        : 5 frames
Codec ID                         : avc1
Codec ID/Info                    : Advanced Video Coding
Duration                         : 2h 18mn
Bit rate mode                    : Variable
Bit rate                         : 1 868 Kbps
Maximum bit rate                 : 20.8 Mbps
Width                            : 1 280 pixels
Height                           : 720 pixels
Display aspect ratio             : 16:9
Frame rate mode                  : Variable
Frame rate                       : 23.976 fps
Minimum frame rate               : 19.048 fps
Maximum frame rate               : 24.390 fps
Resolution                       : 24 bits
Colorimetry                      : 4:2:0
Scan type                        : Progressive
Bits/(Pixel*Frame)               : 0.085
Stream size                      : 1.80 GiB (91%)
Writing library                  : x264 core 112

Audio
ID                               : 2
Format                           : AAC
Format/Info                      : Advanced Audio Codec
Format version                   : Version 4
Format profile                   : LC
Format settings, SBR             : No
Codec ID                         : 40
Duration                         : 2h 18mn
Bit rate mode                    : Variable
Bit rate                         : 178 Kbps
Maximum bit rate                 : 223 Kbps
Channel(s)                       : 2 channels
Channel positions                : L R
Sampling rate                    : 48.0 KHz
Resolution                       : 16 bits
Stream size                      : 176 MiB (9%)
Language                         : English

Enjoy...

Requested by varuneric.

Work in progress for other requests.